<svg xmlns="http://www.w3.org/2000/svg" viewBox="0 0 1200 430" width="1200" height="430" role="img" aria-label="Futuristic purple GitHub activity dashboard">
<defs>
 <linearGradient id="bg" x1="0" y1="0" x2="1" y2="1"><stop stop-color="#05030b"/><stop offset=".55" stop-color="#0b0615"/><stop offset="1" stop-color="#140822"/></linearGradient>
 <linearGradient id="p" x1="0" y1="0" x2="1" y2="1"><stop stop-color="#c084fc"/><stop offset=".5" stop-color="#a855f7"/><stop offset="1" stop-color="#7c3aed"/></linearGradient>
 <filter id="g"><feGaussianBlur stdDeviation="5" result="b"/><feMerge><feMergeNode in="b"/><feMergeNode in="SourceGraphic"/></feMerge></filter>
 <filter id="soft"><feGaussianBlur stdDeviation="18"/></filter>
 <style>
  .float{animation:float 4s ease-in-out infinite}
  .pulse{animation:pulse 2.2s ease-in-out infinite}
  .scan{animation:scan 3.5s linear infinite}
  @keyframes float{0%,100%{transform:translateY(0)}50%{transform:translateY(-7px)}}
  @keyframes pulse{0%,100%{opacity:.45}50%{opacity:1}}
  @keyframes scan{0%{transform:translateY(0);opacity:0}15%{opacity:.8}85%{opacity:.8}100%{transform:translateY(145px);opacity:0}}
 </style>
</defs>
<rect width="1200" height="430" rx="28" fill="url(#bg)"/>
<rect x="14" y="14" width="1172" height="402" rx="24" fill="none" stroke="#7c3aed" stroke-opacity=".65"/>
<path d="M35 65H265l18 18h245" fill="none" stroke="#a855f7" stroke-width="2"/>
<path d="M935 65h230" fill="none" stroke="#a855f7" stroke-width="2"/>
<g font-family="Arial,sans-serif">
 <text x="62" y="63" fill="#fff" font-size="30" font-weight="800">GitHub <tspan fill="#c084fc">Activity</tspan></text>
 <text x="64" y="88" fill="#bca7d9" font-size="11" letter-spacing="4">CODE • COMMIT • BUILD • GROW</text>
</g>
<g class="pulse" opacity=".25" filter="url(#soft)" fill="#a855f7"><ellipse cx="590" cy="270" rx="350" ry="75"/></g>
<g class="float" fill="none" stroke="#a855f7" opacity=".5">
 <ellipse cx="600" cy="220" rx="360" ry="92" transform="rotate(-7 600 220)"/>
 <ellipse cx="600" cy="220" rx="300" ry="65" transform="rotate(11 600 220)"/>
</g>
<g class="pulse" fill="#a855f7" filter="url(#g)">
 <circle cx="250" cy="165" r="4"/><circle cx="385" cy="305" r="5"/><circle cx="805" cy="130" r="4"/><circle cx="945" cy="276" r="5"/><circle cx="1050" cy="170" r="3"/>
</g>
<g class="float" transform="translate(360 115)">
 <rect x="0" y="0" width="485" height="205" rx="18" fill="#08060d" stroke="#8b5cf6" stroke-width="2"/>
 <rect class="scan" x="18" y="42" width="445" height="2" rx="1" fill="#c084fc" opacity=".7"/>
 <text x="24" y="30" fill="#c084fc" font-family="Arial" font-size="11" letter-spacing="3">CONTRIBUTION MATRIX</text>
 <g transform="translate(24 52)">
  <g fill="#170d25">
   <rect x="0" y="0" width="10" height="8" rx="2"/><rect x="15" y="0" width="10" height="8" rx="2"/><rect x="30" y="0" width="10" height="8" rx="2"/><rect x="45" y="0" width="10" height="8" rx="2"/><rect x="60" y="0" width="10" height="8" rx="2"/><rect x="75" y="0" width="10" height="8" rx="2"/><rect x="90" y="0" width="10" height="8" rx="2"/><rect x="105" y="0" width="10" height="8" rx="2"/><rect x="120" y="0" width="10" height="8" rx="2"/><rect x="135" y="0" width="10" height="8" rx="2"/><rect x="150" y="0" width="10" height="8" rx="2"/><rect x="165" y="0" width="10" height="8" rx="2"/><rect x="180" y="0" width="10" height="8" rx="2"/><rect x="195" y="0" width="10" height="8" rx="2"/><rect x="210" y="0" width="10" height="8" rx="2"/><rect x="225" y="0" width="10" height="8" rx="2"/><rect x="240" y="0" width="10" height="8" rx="2"/><rect x="255" y="0" width="10" height="8" rx="2"/><rect x="270" y="0" width="10" height="8" rx="2"/><rect x="285" y="0" width="10" height="8" rx="2"/><rect x="300" y="0" width="10" height="8" rx="2"/><rect x="315" y="0" width="10" height="8" rx="2"/><rect x="330" y="0" width="10" height="8" rx="2"/><rect x="345" y="0" width="10" height="8" rx="2"/><rect x="360" y="0" width="10" height="8" rx="2"/><rect x="375" y="0" width="10" height="8" rx="2"/><rect x="390" y="0" width="10" height="8" rx="2"/><rect x="405" y="0" width="10" height="8" rx="2"/><rect x="0" y="12" width="10" height="8" rx="2"/><rect x="15" y="12" width="10" height="8" rx="2"/><rect x="30" y="12" width="10" height="8" rx="2"/><rect x="45" y="12" width="10" height="8" rx="2"/><rect x="60" y="12" width="10" height="8" rx="2"/><rect x="75" y="12" width="10" height="8" rx="2"/><rect x="90" y="12" width="10" height="8" rx="2"/><rect x="105" y="12" width="10" height="8" rx="2"/><rect x="120" y="12" width="10" height="8" rx="2"/><rect x="135" y="12" width="10" height="8" rx="2"/><rect x="150" y="12" width="10" height="8" rx="2"/><rect x="165" y="12" width="10" height="8" rx="2"/><rect x="180" y="12" width="10" height="8" rx="2"/><rect x="195" y="12" width="10" height="8" rx="2"/><rect x="210" y="12" width="10" height="8" rx="2"/><rect x="225" y="12" width="10" height="8" rx="2"/><rect x="240" y="12" width="10" height="8" rx="2"/><rect x="255" y="12" width="10" height="8" rx="2"/><rect x="270" y="12" width="10" height="8" rx="2"/><rect x="285" y="12" width="10" height="8" rx="2"/><rect x="300" y="12" width="10" height="8" rx="2"/><rect x="315" y="12" width="10" height="8" rx="2"/><rect x="330" y="12" width="10" height="8" rx="2"/><rect x="345" y="12" width="10" height="8" rx="2"/><rect x="360" y="12" width="10" height="8" rx="2"/><rect x="375" y="12" width="10" height="8" rx="2"/><rect x="390" y="12" width="10" height="8" rx="2"/><rect x="405" y="12" width="10" height="8" rx="2"/><rect x="0" y="24" width="10" height="8" rx="2"/><rect x="15" y="24" width="10" height="8" rx="2"/><rect x="30" y="24" width="10" height="8" rx="2"/><rect x="45" y="24" width="10" height="8" rx="2"/><rect x="60" y="24" width="10" height="8" rx="2"/><rect x="75" y="24" width="10" height="8" rx="2"/><rect x="90" y="24" width="10" height="8" rx="2"/><rect x="105" y="24" width="10" height="8" rx="2"/><rect x="120" y="24" width="10" height="8" rx="2"/><rect x="135" y="24" width="10" height="8" rx="2"/><rect x="150" y="24" width="10" height="8" rx="2"/><rect x="165" y="24" width="10" height="8" rx="2"/><rect x="180" y="24" width="10" height="8" rx="2"/><rect x="195" y="24" width="10" height="8" rx="2"/><rect x="210" y="24" width="10" height="8" rx="2"/><rect x="225" y="24" width="10" height="8" rx="2"/><rect x="240" y="24" width="10" height="8" rx="2"/><rect x="255" y="24" width="10" height="8" rx="2"/><rect x="270" y="24" width="10" height="8" rx="2"/><rect x="285" y="24" width="10" height="8" rx="2"/><rect x="300" y="24" width="10" height="8" rx="2"/><rect x="315" y="24" width="10" height="8" rx="2"/><rect x="330" y="24" width="10" height="8" rx="2"/><rect x="345" y="24" width="10" height="8" rx="2"/><rect x="360" y="24" width="10" height="8" rx="2"/><rect x="375" y="24" width="10" height="8" rx="2"/><rect x="390" y="24" width="10" height="8" rx="2"/><rect x="405" y="24" width="10" height="8" rx="2"/><rect x="0" y="36" width="10" height="8" rx="2"/><rect x="15" y="36" width="10" height="8" rx="2"/><rect x="30" y="36" width="10" height="8" rx="2"/><rect x="45" y="36" width="10" height="8" rx="2"/><rect x="60" y="36" width="10" height="8" rx="2"/><rect x="75" y="36" width="10" height="8" rx="2"/><rect x="90" y="36" width="10" height="8" rx="2"/><rect x="105" y="36" width="10" height="8" rx="2"/><rect x="120" y="36" width="10" height="8" rx="2"/><rect x="135" y="36" width="10" height="8" rx="2"/><rect x="150" y="36" width="10" height="8" rx="2"/><rect x="165" y="36" width="10" height="8" rx="2"/><rect x="180" y="36" width="10" height="8" rx="2"/><rect x="195" y="36" width="10" height="8" rx="2"/><rect x="210" y="36" width="10" height="8" rx="2"/><rect x="225" y="36" width="10" height="8" rx="2"/><rect x="240" y="36" width="10" height="8" rx="2"/><rect x="255" y="36" width="10" height="8" rx="2"/><rect x="270" y="36" width="10" height="8" rx="2"/><rect x="285" y="36" width="10" height="8" rx="2"/><rect x="300" y="36" width="10" height="8" rx="2"/><rect x="315" y="36" width="10" height="8" rx="2"/><rect x="330" y="36" width="10" height="8" rx="2"/><rect x="345" y="36" width="10" height="8" rx="2"/><rect x="360" y="36" width="10" height="8" rx="2"/><rect x="375" y="36" width="10" height="8" rx="2"/><rect x="390" y="36" width="10" height="8" rx="2"/><rect x="405" y="36" width="10" height="8" rx="2"/><rect x="0" y="48" width="10" height="8" rx="2"/><rect x="15" y="48" width="10" height="8" rx="2"/><rect x="30" y="48" width="10" height="8" rx="2"/><rect x="45" y="48" width="10" height="8" rx="2"/><rect x="60" y="48" width="10" height="8" rx="2"/><rect x="75" y="48" width="10" height="8" rx="2"/><rect x="90" y="48" width="10" height="8" rx="2"/><rect x="105" y="48" width="10" height="8" rx="2"/><rect x="120" y="48" width="10" height="8" rx="2"/><rect x="135" y="48" width="10" height="8" rx="2"/><rect x="150" y="48" width="10" height="8" rx="2"/><rect x="165" y="48" width="10" height="8" rx="2"/><rect x="180" y="48" width="10" height="8" rx="2"/><rect x="195" y="48" width="10" height="8" rx="2"/><rect x="210" y="48" width="10" height="8" rx="2"/><rect x="225" y="48" width="10" height="8" rx="2"/><rect x="240" y="48" width="10" height="8" rx="2"/><rect x="255" y="48" width="10" height="8" rx="2"/><rect x="270" y="48" width="10" height="8" rx="2"/><rect x="285" y="48" width="10" height="8" rx="2"/><rect x="300" y="48" width="10" height="8" rx="2"/><rect x="315" y="48" width="10" height="8" rx="2"/><rect x="330" y="48" width="10" height="8" rx="2"/><rect x="345" y="48" width="10" height="8" rx="2"/><rect x="360" y="48" width="10" height="8" rx="2"/><rect x="375" y="48" width="10" height="8" rx="2"/><rect x="390" y="48" width="10" height="8" rx="2"/><rect x="405" y="48" width="10" height="8" rx="2"/><rect x="0" y="60" width="10" height="8" rx="2"/><rect x="15" y="60" width="10" height="8" rx="2"/><rect x="30" y="60" width="10" height="8" rx="2"/><rect x="45" y="60" width="10" height="8" rx="2"/><rect x="60" y="60" width="10" height="8" rx="2"/><rect x="75" y="60" width="10" height="8" rx="2"/><rect x="90" y="60" width="10" height="8" rx="2"/><rect x="105" y="60" width="10" height="8" rx="2"/><rect x="120" y="60" width="10" height="8" rx="2"/><rect x="135" y="60" width="10" height="8" rx="2"/><rect x="150" y="60" width="10" height="8" rx="2"/><rect x="165" y="60" width="10" height="8" rx="2"/><rect x="180" y="60" width="10" height="8" rx="2"/><rect x="195" y="60" width="10" height="8" rx="2"/><rect x="210" y="60" width="10" height="8" rx="2"/><rect x="225" y="60" width="10" height="8" rx="2"/><rect x="240" y="60" width="10" height="8" rx="2"/><rect x="255" y="60" width="10" height="8" rx="2"/><rect x="270" y="60" width="10" height="8" rx="2"/><rect x="285" y="60" width="10" height="8" rx="2"/><rect x="300" y="60" width="10" height="8" rx="2"/><rect x="315" y="60" width="10" height="8" rx="2"/><rect x="330" y="60" width="10" height="8" rx="2"/><rect x="345" y="60" width="10" height="8" rx="2"/><rect x="360" y="60" width="10" height="8" rx="2"/><rect x="375" y="60" width="10" height="8" rx="2"/><rect x="390" y="60" width="10" height="8" rx="2"/><rect x="405" y="60" width="10" height="8" rx="2"/><rect x="0" y="72" width="10" height="8" rx="2"/><rect x="15" y="72" width="10" height="8" rx="2"/><rect x="30" y="72" width="10" height="8" rx="2"/><rect x="45" y="72" width="10" height="8" rx="2"/><rect x="60" y="72" width="10" height="8" rx="2"/><rect x="75" y="72" width="10" height="8" rx="2"/><rect x="90" y="72" width="10" height="8" rx="2"/><rect x="105" y="72" width="10" height="8" rx="2"/><rect x="120" y="72" width="10" height="8" rx="2"/><rect x="135" y="72" width="10" height="8" rx="2"/><rect x="150" y="72" width="10" height="8" rx="2"/><rect x="165" y="72" width="10" height="8" rx="2"/><rect x="180" y="72" width="10" height="8" rx="2"/><rect x="195" y="72" width="10" height="8" rx="2"/><rect x="210" y="72" width="10" height="8" rx="2"/><rect x="225" y="72" width="10" height="8" rx="2"/><rect x="240" y="72" width="10" height="8" rx="2"/><rect x="255" y="72" width="10" height="8" rx="2"/><rect x="270" y="72" width="10" height="8" rx="2"/><rect x="285" y="72" width="10" height="8" rx="2"/><rect x="300" y="72" width="10" height="8" rx="2"/><rect x="315" y="72" width="10" height="8" rx="2"/><rect x="330" y="72" width="10" height="8" rx="2"/><rect x="345" y="72" width="10" height="8" rx="2"/><rect x="360" y="72" width="10" height="8" rx="2"/><rect x="375" y="72" width="10" height="8" rx="2"/><rect x="390" y="72" width="10" height="8" rx="2"/><rect x="405" y="72" width="10" height="8" rx="2"/><rect x="0" y="84" width="10" height="8" rx="2"/><rect x="15" y="84" width="10" height="8" rx="2"/><rect x="30" y="84" width="10" height="8" rx="2"/><rect x="45" y="84" width="10" height="8" rx="2"/><rect x="60" y="84" width="10" height="8" rx="2"/><rect x="75" y="84" width="10" height="8" rx="2"/><rect x="90" y="84" width="10" height="8" rx="2"/><rect x="105" y="84" width="10" height="8" rx="2"/><rect x="120" y="84" width="10" height="8" rx="2"/><rect x="135" y="84" width="10" height="8" rx="2"/><rect x="150" y="84" width="10" height="8" rx="2"/><rect x="165" y="84" width="10" height="8" rx="2"/><rect x="180" y="84" width="10" height="8" rx="2"/><rect x="195" y="84" width="10" height="8" rx="2"/><rect x="210" y="84" width="10" height="8" rx="2"/><rect x="225" y="84" width="10" height="8" rx="2"/><rect x="240" y="84" width="10" height="8" rx="2"/><rect x="255" y="84" width="10" height="8" rx="2"/><rect x="270" y="84" width="10" height="8" rx="2"/><rect x="285" y="84" width="10" height="8" rx="2"/><rect x="300" y="84" width="10" height="8" rx="2"/><rect x="315" y="84" width="10" height="8" rx="2"/><rect x="330" y="84" width="10" height="8" rx="2"/><rect x="345" y="84" width="10" height="8" rx="2"/><rect x="360" y="84" width="10" height="8" rx="2"/><rect x="375" y="84" width="10" height="8" rx="2"/><rect x="390" y="84" width="10" height="8" rx="2"/><rect x="405" y="84" width="10" height="8" rx="2"/><rect x="0" y="96" width="10" height="8" rx="2"/><rect x="15" y="96" width="10" height="8" rx="2"/><rect x="30" y="96" width="10" height="8" rx="2"/><rect x="45" y="96" width="10" height="8" rx="2"/><rect x="60" y="96" width="10" height="8" rx="2"/><rect x="75" y="96" width="10" height="8" rx="2"/><rect x="90" y="96" width="10" height="8" rx="2"/><rect x="105" y="96" width="10" height="8" rx="2"/><rect x="120" y="96" width="10" height="8" rx="2"/><rect x="135" y="96" width="10" height="8" rx="2"/><rect x="150" y="96" width="10" height="8" rx="2"/><rect x="165" y="96" width="10" height="8" rx="2"/><rect x="180" y="96" width="10" height="8" rx="2"/><rect x="195" y="96" width="10" height="8" rx="2"/><rect x="210" y="96" width="10" height="8" rx="2"/><rect x="225" y="96" width="10" height="8" rx="2"/><rect x="240" y="96" width="10" height="8" rx="2"/><rect x="255" y="96" width="10" height="8" rx="2"/><rect x="270" y="96" width="10" height="8" rx="2"/><rect x="285" y="96" width="10" height="8" rx="2"/><rect x="300" y="96" width="10" height="8" rx="2"/><rect x="315" y="96" width="10" height="8" rx="2"/><rect x="330" y="96" width="10" height="8" rx="2"/><rect x="345" y="96" width="10" height="8" rx="2"/><rect x="360" y="96" width="10" height="8" rx="2"/><rect x="375" y="96" width="10" height="8" rx="2"/><rect x="390" y="96" width="10" height="8" rx="2"/><rect x="405" y="96" width="10" height="8" rx="2"/><rect x="0" y="108" width="10" height="8" rx="2"/><rect x="15" y="108" width="10" height="8" rx="2"/><rect x="30" y="108" width="10" height="8" rx="2"/><rect x="45" y="108" width="10" height="8" rx="2"/><rect x="60" y="108" width="10" height="8" rx="2"/><rect x="75" y="108" width="10" height="8" rx="2"/><rect x="90" y="108" width="10" height="8" rx="2"/><rect x="105" y="108" width="10" height="8" rx="2"/><rect x="120" y="108" width="10" height="8" rx="2"/><rect x="135" y="108" width="10" height="8" rx="2"/><rect x="150" y="108" width="10" height="8" rx="2"/><rect x="165" y="108" width="10" height="8" rx="2"/><rect x="180" y="108" width="10" height="8" rx="2"/><rect x="195" y="108" width="10" height="8" rx="2"/><rect x="210" y="108" width="10" height="8" rx="2"/><rect x="225" y="108" width="10" height="8" rx="2"/><rect x="240" y="108" width="10" height="8" rx="2"/><rect x="255" y="108" width="10" height="8" rx="2"/><rect x="270" y="108" width="10" height="8" rx="2"/><rect x="285" y="108" width="10" height="8" rx="2"/><rect x="300" y="108" width="10" height="8" rx="2"/><rect x="315" y="108" width="10" height="8" rx="2"/><rect x="330" y="108" width="10" height="8" rx="2"/><rect x="345" y="108" width="10" height="8" rx="2"/><rect x="360" y="108" width="10" height="8" rx="2"/><rect x="375" y="108" width="10" height="8" rx="2"/><rect x="390" y="108" width="10" height="8" rx="2"/><rect x="405" y="108" width="10" height="8" rx="2"/><rect x="0" y="120" width="10" height="8" rx="2"/><rect x="15" y="120" width="10" height="8" rx="2"/><rect x="30" y="120" width="10" height="8" rx="2"/><rect x="45" y="120" width="10" height="8" rx="2"/><rect x="60" y="120" width="10" height="8" rx="2"/><rect x="75" y="120" width="10" height="8" rx="2"/><rect x="90" y="120" width="10" height="8" rx="2"/><rect x="105" y="120" width="10" height="8" rx="2"/><rect x="120" y="120" width="10" height="8" rx="2"/><rect x="135" y="120" width="10" height="8" rx="2"/><rect x="150" y="120" width="10" height="8" rx="2"/><rect x="165" y="120" width="10" height="8" rx="2"/><rect x="180" y="120" width="10" height="8" rx="2"/><rect x="195" y="120" width="10" height="8" rx="2"/><rect x="210" y="120" width="10" height="8" rx="2"/><rect x="225" y="120" width="10" height="8" rx="2"/><rect x="240" y="120" width="10" height="8" rx="2"/><rect x="255" y="120" width="10" height="8" rx="2"/><rect x="270" y="120" width="10" height="8" rx="2"/><rect x="285" y="120" width="10" height="8" rx="2"/><rect x="300" y="120" width="10" height="8" rx="2"/><rect x="315" y="120" width="10" height="8" rx="2"/><rect x="330" y="120" width="10" height="8" rx="2"/><rect x="345" y="120" width="10" height="8" rx="2"/><rect x="360" y="120" width="10" height="8" rx="2"/><rect x="375" y="120" width="10" height="8" rx="2"/><rect x="390" y="120" width="10" height="8" rx="2"/><rect x="405" y="120" width="10" height="8" rx="2"/>
  </g>
  <g fill="#4c1d95">
   <rect x="15" y="24" width="10" height="8"/><rect x="45" y="48" width="10" height="8"/><rect x="90" y="12" width="10" height="8"/><rect x="120" y="60" width="10" height="8"/><rect x="165" y="36" width="10" height="8"/><rect x="210" y="72" width="10" height="8"/><rect x="255" y="24" width="10" height="8"/><rect x="300" y="48" width="10" height="8"/><rect x="345" y="12" width="10" height="8"/><rect x="390" y="60" width="10" height="8"/>
  </g>
  <g fill="#a855f7">
   <rect x="30" y="72" width="10" height="8"/><rect x="75" y="36" width="10" height="8"/><rect x="105" y="84" width="10" height="8"/><rect x="150" y="12" width="10" height="8"/><rect x="195" y="60" width="10" height="8"/><rect x="240" y="36" width="10" height="8"/><rect x="285" y="84" width="10" height="8"/><rect x="330" y="48" width="10" height="8"/><rect x="375" y="24" width="10" height="8"/>
  </g>
  <g fill="#c084fc"><rect x="60" y="12" width="10" height="8"/><rect x="180" y="48" width="10" height="8"/><rect x="270" y="60" width="10" height="8"/><rect x="405" y="36" width="10" height="8"/></g>
 </g>
 <circle class="pulse" cx="242" cy="112" r="43" fill="#09060f" stroke="#a855f7" stroke-width="3" filter="url(#g)"/>
 <path d="M242 86c-15 0-27 12-27 27 0 12 8 22 19 26 1 0 2-1 2-2v-8c-8 2-10-4-10-4-1-4-3-5-3-5-3-2 0-2 0-2 3 0 5 3 5 3 3 5 7 4 9 3 0-2 1-4 2-5-7-1-14-4-14-15 0-3 1-6 3-8-1-1-1-4 0-8 0 0 3-1 9 3 3-1 7-2 10-2s7 1 10 2c6-4 9-3 9-3 1 4 1 7 0 8 2 2 3 5 3 8 0 11-7 14-14 15 1 1 2 3 2 6v8c0 1 1 2 2 2 11-4 19-14 19-26 0-15-12-27-27-27z" fill="#fff"/>
</g>
<g class="float" font-family="Arial,sans-serif">
 <text x="62" y="170" fill="#fff" font-size="15" font-weight="700">SMALL COMMITS.</text>
 <text x="62" y="194" fill="#c084fc" font-size="15" font-weight="700">BIG DREAMS.</text>
 <text x="62" y="222" fill="#8b5cf6" font-size="18">&lt;/&gt;</text>
 <text x="900" y="155" fill="#c084fc" font-size="11" letter-spacing="3">ACTIVITY FLOW</text>
 <text x="900" y="186" fill="#fff" font-size="14">REPOSITORIES</text>
 <text x="900" y="215" fill="#fff" font-size="14">COMMITS</text>
 <text x="900" y="244" fill="#fff" font-size="14">BRANCHES</text>
 <text x="900" y="273" fill="#fff" font-size="14">PULL REQUESTS</text>
 <path d="M1070 181h55M1070 210h55M1070 239h55M1070 268h55" stroke="#a855f7" stroke-width="2"/>
 <circle class="pulse" cx="1128" cy="181" r="4" fill="#c084fc"/><circle class="pulse" cx="1115" cy="210" r="4" fill="#a855f7"/><circle class="pulse" cx="1140" cy="239" r="4" fill="#8b5cf6"/><circle class="pulse" cx="1122" cy="268" r="4" fill="#c084fc"/>
</g>
<path d="M55 365H500" stroke="#7c3aed" stroke-width="2"/><text x="62" y="390" fill="#9f8bb7" font-family="Arial" font-size="10" letter-spacing="3">CONTRIBUTING • LEARNING • BUILDING</text>
<text x="1115" y="390" text-anchor="end" fill="#c084fc" font-family="Arial" font-size="10" letter-spacing="3">GITHUB ACTIVITY</text>
</svg>